<svg width="24" height="24" viewBox="0 0 24 24" fill="none" xmlns="http://www.w3.org/2000/svg">
<path d="M14.844 3.04503C15.1249 2.98047 15.4189 3.00497 15.6852 3.11513C15.9515 3.22529 16.1769 3.41564 16.3301 3.65975L17.7094 5.86193C17.8207 6.0393 17.9706 6.18921 18.1479 6.30042L20.3501 7.67973C20.5947 7.83283 20.7856 8.05839 20.896 8.32501C21.0064 8.59163 21.031 8.88605 20.9662 9.16728L20.3834 11.6983C20.3364 11.9029 20.3364 12.1154 20.3834 12.32L20.9662 14.8524C21.0303 15.1332 21.0055 15.4271 20.8951 15.6931C20.7847 15.9592 20.5942 16.1843 20.3501 16.3372L18.1479 17.7179C17.9706 17.8291 17.8207 17.979 17.7094 18.1564L16.3301 20.3586C16.1771 20.6029 15.9518 20.7936 15.6855 20.904C15.4191 21.0144 15.125 21.0391 14.844 20.9747L12.3115 20.3919C12.1074 20.3451 11.8954 20.3451 11.6913 20.3919L9.15883 20.9747C8.8778 21.0391 8.58369 21.0144 8.31735 20.904C8.05102 20.7936 7.82569 20.6029 7.67267 20.3586L6.29336 18.1564C6.18175 17.9789 6.03136 17.8289 5.85348 17.7179L3.65269 16.3386C3.40833 16.1856 3.21769 15.9602 3.10728 15.6939C2.99687 15.4276 2.97215 15.1335 3.03658 14.8524L3.618 12.32C3.66501 12.1154 3.66501 11.9029 3.618 11.6983L3.03519 9.16728C2.97059 8.8859 2.99535 8.59138 3.10604 8.32475C3.21672 8.05811 3.40781 7.83264 3.65269 7.67973L5.85348 6.30042C6.03136 6.18937 6.18175 6.03945 6.29336 5.86193L7.67267 3.65975C7.82579 3.4159 8.05098 3.22573 8.31702 3.11558C8.58305 3.00544 8.87677 2.98078 9.15744 3.04503L11.6913 3.62645C11.8954 3.67325 12.1074 3.67325 12.3115 3.62645L14.844 3.04503Z" stroke="white" stroke-width="1.2"/>
<path d="M8.55371 12.7521L11.3776 15.4566L15.4503 8.56009" stroke="white" stroke-width="1.2" stroke-linecap="round" stroke-linejoin="round"/>
</svg>
