<svg width="72" height="77" viewBox="0 0 72 77" fill="none" xmlns="http://www.w3.org/2000/svg">
<path d="M0.954102 8.95846C4.4701 18.5855 6.7591 28.8035 7.6441 39.4205L61.3381 52.7045C61.3681 51.5795 61.3861 50.4605 61.3861 49.3295C59.8441 -1.10054 47.3881 -7.31954 0.954102 8.95846ZM15.8131 32.2775C14.9971 26.2145 13.7431 20.2295 12.0661 14.3705C20.4781 11.7155 29.2201 10.2425 38.1211 10.0175C42.4291 10.0535 46.1971 12.8135 47.5621 16.8695L39.4681 18.0065L26.0491 19.8935C26.7271 21.9275 27.2071 24.0515 27.4741 26.2385L42.6751 29.9735L51.1201 32.0465C51.6061 35.1005 51.9661 38.1815 52.1911 41.2805L15.8101 32.2775H15.8131Z" fill="#F03D24"/>
<path d="M0.954102 60.0684H6.32347C10.3012 60.0684 12.6087 62.5854 12.6087 66.1796C12.6087 69.7739 10.362 72.5654 6.26688 72.5654H0.954102V60.0684ZM4.61961 69.9143H6.02168C8.00847 69.9143 8.82372 68.5206 8.82372 66.1796C8.82372 64.1111 8.06506 62.7216 6.06569 62.7216H4.61961V69.9143Z" fill="#F03D24"/>
<path d="M23.0302 69.7447C23.0302 70.8177 23.0847 72.247 23.1455 72.5656H19.8803C19.8069 72.3707 19.7461 71.9201 19.7335 71.6874C19.2809 72.2784 18.5809 72.7961 17.0489 72.7961C14.9154 72.7961 13.7627 71.4548 13.7627 69.7635C13.7627 67.5273 15.5546 66.5612 18.4593 66.5612H19.6267V66.0351C19.6267 65.4253 19.4108 64.9789 18.5578 64.9789C17.7572 64.9789 17.5477 65.3456 17.4638 65.9597H14.1986C14.3244 64.3711 15.2675 62.8118 18.6479 62.8223C21.7664 62.8349 23.0302 64.0358 23.0302 66.3306V69.7447ZM19.6288 68.3447H18.8449C17.6252 68.3447 17.2249 68.7722 17.2249 69.4743C17.2249 70.0339 17.556 70.4824 18.2602 70.4824C19.459 70.4824 19.6288 69.6608 19.6288 68.6381V68.3447Z" fill="#F03D24"/>
<path d="M25.0708 59.4199H28.6084V63.8965C29.0402 63.36 29.7967 62.8235 31.2072 62.8235C33.5649 62.8235 35.0152 64.7222 35.0152 67.627C35.0152 70.5317 33.5146 72.7951 30.8949 72.7951C29.5788 72.7951 28.992 72.3823 28.5581 71.7996C28.5518 72.0344 28.5099 72.3487 28.4617 72.5646H25.0498C25.0687 71.5859 25.0687 70.5275 25.0687 69.5174V59.4199H25.0708ZM31.4168 67.7192C31.4168 66.2039 31.0039 65.3153 29.956 65.3153C28.8327 65.3153 28.4764 66.0887 28.4764 67.8638C28.4764 69.3497 28.7845 70.3473 29.933 70.3473C30.9431 70.3473 31.4189 69.3644 31.4189 67.7192H31.4168Z" fill="#F03D24"/>
<path d="M39.9102 70.1344L39.1871 72.5654H35.6201L39.5686 60.0684H44.3092L48.4148 72.5654H44.59L43.8314 70.1344H39.9102ZM43.19 67.4203C42.6032 65.4566 42.1233 63.7108 41.8383 62.4932H41.788C41.4988 63.8407 41.0209 65.6222 40.5137 67.4203H43.188H43.19Z" fill="#F03D24"/>
<path d="M53.1744 71.8989V76.0506H49.6556V65.6158C49.6556 64.7586 49.6556 63.7212 49.6367 63.0548H53.078C53.1199 63.2979 53.1681 63.8386 53.1681 64.1173C53.5432 63.5515 54.3082 62.8242 55.836 62.8242C57.8396 62.8242 59.5602 64.482 59.5602 67.5816C59.5602 71.1004 57.5755 72.798 55.3833 72.798C54.2097 72.798 53.5453 72.383 53.1744 71.901V71.8989ZM55.9534 67.7199C55.9534 65.9616 55.4211 65.314 54.5157 65.314C53.4049 65.314 53.0591 66.0748 53.0591 67.852C53.0591 69.493 53.4049 70.3459 54.4381 70.3459C55.4713 70.3459 55.9534 69.5454 55.9534 67.7199Z" fill="#F03D24"/>
<path d="M64.6597 71.8989V76.0506H61.1409V65.6158C61.1409 64.7586 61.1409 63.7212 61.1221 63.0548H64.5633C64.6052 63.2979 64.6534 63.8386 64.6534 64.1173C65.0286 63.5515 65.7935 62.8242 67.3214 62.8242C69.3249 62.8242 71.0456 64.482 71.0456 67.5816C71.0456 71.1004 69.0609 72.798 66.8687 72.798C65.695 72.798 65.0307 72.383 64.6597 71.901V71.8989ZM67.4387 67.7199C67.4387 65.9616 66.9064 65.314 66.001 65.314C64.8903 65.314 64.5445 66.0748 64.5445 67.852C64.5445 69.493 64.8903 70.3459 65.9235 70.3459C66.9567 70.3459 67.4387 69.5454 67.4387 67.7199Z" fill="#F03D24"/>
</svg>
