<svg width="128" height="38" viewBox="0 0 128 38" fill="none" xmlns="http://www.w3.org/2000/svg">
<path d="M37.6401 29.6149L10.9138 23.001C10.315 18.548 9.3944 14.1509 8.1626 9.84813C14.3409 7.89741 20.7618 6.81583 27.3028 6.64844C30.4681 6.67419 33.2343 8.70431 34.2387 11.683L28.2921 12.5178L18.4355 13.9041C18.9312 15.3977 19.2875 16.9578 19.4828 18.5652L30.6506 21.3078L36.8525 22.8314C37.2109 25.0762 37.4727 27.338 37.6401 29.6149Z" fill="white"/>
<path d="M0 5.87417C2.58379 12.9431 4.26411 20.4498 4.91435 28.2484L44.3557 38.0063C44.3772 37.1822 44.3922 36.3581 44.3922 35.5276C43.2591 -1.51451 34.1107 -6.08335 0 5.87417ZM42.8857 36.0963L6.31354 27.0466C5.65472 20.1279 4.17827 13.3272 1.92282 6.79695C12.5734 3.13587 19.8183 1.49418 25.2821 1.49418C31.6793 1.49418 35.7202 3.78611 38.3812 8.92364C41.0938 14.162 42.4844 22.3748 42.89 35.5512C42.8879 35.7294 42.8879 35.9096 42.8857 36.0963Z" fill="white"/>
<path d="M51.1069 11.332H56.4763C60.4541 11.332 62.7615 13.8491 62.7615 17.4433C62.7615 21.0375 60.5149 23.8291 56.4197 23.8291H51.1069V11.332ZM54.7724 21.178H56.1745C58.1613 21.178 58.9766 19.7843 58.9766 17.4433C58.9766 15.3748 58.2179 13.9853 56.2185 13.9853H54.7724V21.178Z" fill="white"/>
<path d="M73.183 21.0083C73.183 22.0814 73.2375 23.5107 73.2983 23.8292H70.0331C69.9597 23.6343 69.899 23.1837 69.8864 22.9511C69.4337 23.5421 68.7337 24.0598 67.2017 24.0598C65.0682 24.0598 63.9155 22.7185 63.9155 21.0272C63.9155 18.791 65.7074 17.8248 68.6122 17.8248H69.7795V17.2988C69.7795 16.6889 69.5636 16.2425 68.7107 16.2425C67.9101 16.2425 67.7005 16.6093 67.6167 17.2234H64.3514C64.4772 15.6348 65.4203 14.0755 68.8008 14.086C71.9193 14.0986 73.183 15.2994 73.183 17.5943V21.0083ZM69.7816 19.6083H68.9978C67.778 19.6083 67.3777 20.0359 67.3777 20.738C67.3777 21.2975 67.7089 21.746 68.4131 21.746C69.6118 21.746 69.7816 20.9245 69.7816 19.9018V19.6083Z" fill="white"/>
<path d="M75.2231 10.6836H78.7608V15.1602C79.1925 14.6236 79.9491 14.0871 81.3595 14.0871C83.7173 14.0871 85.1675 15.9859 85.1675 18.8906C85.1675 21.7954 83.667 24.0588 81.0473 24.0588C79.7311 24.0588 79.1443 23.6459 78.7105 23.0633C78.7042 23.298 78.6623 23.6124 78.6141 23.8283H75.2021C75.221 22.8496 75.221 21.7912 75.221 20.781V10.6836H75.2231ZM81.5691 18.9829C81.5691 17.4676 81.1562 16.579 80.1084 16.579C78.985 16.579 78.6287 17.3523 78.6287 19.1275C78.6287 20.6134 78.9368 21.6109 80.0853 21.6109C81.0955 21.6109 81.5712 20.628 81.5712 18.9829H81.5691Z" fill="white"/>
<path d="M90.063 21.398L89.34 23.8291H85.7729L89.7214 11.332H94.462L98.5676 23.8291H94.7429L93.9842 21.398H90.063ZM93.3429 18.684C92.7561 16.7203 92.2761 14.9745 91.9911 13.7568H91.9408C91.6516 15.1044 91.1738 16.8858 90.6666 18.684H93.3408H93.3429Z" fill="white"/>
<path d="M103.327 23.1626V27.3143H99.8084V16.8795C99.8084 16.0223 99.8084 14.9849 99.7896 14.3184H103.231C103.273 14.5615 103.321 15.1022 103.321 15.381C103.696 14.8151 104.461 14.0879 105.989 14.0879C107.992 14.0879 109.713 15.7456 109.713 18.8453C109.713 22.3641 107.728 24.0617 105.536 24.0617C104.363 24.0617 103.698 23.6467 103.327 23.1647V23.1626ZM106.106 18.9836C106.106 17.2253 105.574 16.5777 104.669 16.5777C103.558 16.5777 103.212 17.3384 103.212 19.1156C103.212 20.7566 103.558 21.6096 104.591 21.6096C105.624 21.6096 106.106 20.809 106.106 18.9836Z" fill="white"/>
<path d="M114.813 23.1626V27.3143H111.294V16.8795C111.294 16.0223 111.294 14.9849 111.275 14.3184H114.716C114.758 14.5615 114.806 15.1022 114.806 15.381C115.181 14.8151 115.946 14.0879 117.474 14.0879C119.478 14.0879 121.198 15.7456 121.198 18.8453C121.198 22.3641 119.214 24.0617 117.022 24.0617C115.848 24.0617 115.184 23.6467 114.813 23.1647V23.1626ZM117.592 18.9836C117.592 17.2253 117.059 16.5777 116.154 16.5777C115.043 16.5777 114.697 17.3384 114.697 19.1156C114.697 20.7566 115.043 21.6096 116.076 21.6096C117.11 21.6096 117.592 20.809 117.592 18.9836Z" fill="white"/>
</svg>
