<svg width="23" height="23" viewBox="0 0 23 23" fill="none" xmlns="http://www.w3.org/2000/svg">
<g clip-path="url(#clip0_54622_21058)">
<path d="M6.07252 14.5524L4.82325 15.8008C5.67502 16.6526 5.95895 17.0501 6.01574 17.4476C6.07252 17.3908 7.20823 16.4254 7.20823 16.0847C7.20823 15.5736 6.86752 15.4033 6.07252 14.5524ZM3.23326 12.3369H2.55273C2.55273 12.3369 3.23416 12.7344 3.23416 13.6438V16.7085C3.23416 18.6959 4.88003 20.5699 6.86752 20.5699H8.51429C9.53643 20.5699 9.87714 20.3427 10.445 19.7749L11.0687 19.1502C11.4094 18.7536 11.8078 18.4697 11.8078 17.3908V16.3686C11.8078 15.5169 11.2959 15.1194 11.0687 14.8922L10.5009 14.3244V16.3686C10.5009 16.3686 10.8984 16.8229 11.1255 16.9365C11.9773 17.6179 11.2968 18.8095 10.5018 18.8095H6.81073C5.10717 18.7527 3.74432 17.334 3.68754 15.6304V13.9837C3.68754 12.3369 3.23416 12.3369 3.23416 12.3369M8.57017 14.5515L7.3218 15.8008C8.17358 16.6526 8.4575 17.0501 8.51429 17.4476C8.57107 17.3908 9.70678 16.4254 9.70678 16.0847C9.70678 15.5736 9.36607 15.3456 8.57107 14.5524M11.1255 0.527344L10.2746 1.37912C9.93392 1.71984 10.0475 2.40126 10.7289 3.08268V4.78624C10.7289 4.9557 10.5577 5.12605 10.5577 5.12605C10.5577 5.12605 9.53643 4.21749 8.62876 4.21749H7.26501C6.41323 4.21749 5.73271 5.01248 5.61824 5.06927C5.16396 5.52355 5.16396 6.37623 5.50467 6.77283L6.47002 7.73818C6.47002 7.73818 6.24288 6.20587 6.47002 5.18284C6.5268 4.9557 6.81073 4.67177 7.09466 4.67177L9.30928 6.37533L6.75394 9.04334C6.64037 9.15781 6.29966 9.38495 5.95895 9.38495C5.56236 9.38495 5.3911 9.15781 5.22074 8.93067V10.1799C5.22074 10.5765 5.7886 11.0317 6.29966 11.0317H9.70678C9.93392 11.0317 10.2178 10.9749 10.445 10.7478L11.5807 9.61209C11.7501 9.44083 11.8069 9.21459 11.8069 8.93067V7.62461C11.8069 6.37533 10.8425 5.40998 10.8425 5.40998C10.8425 5.40998 11.0687 5.23962 11.0687 4.72855V3.42339C11.0687 3.42339 11.4662 3.81999 11.523 3.99125L12.2621 3.25214C12.6019 2.91233 12.0341 2.28769 11.8069 2.00376C11.1255 1.26465 11.1255 0.527344 11.1255 0.527344ZM6.86842 9.49852C7.20913 9.32726 7.26591 9.21459 7.54984 8.87388L9.70768 6.60247C9.70768 6.60247 10.8993 7.85175 11.2968 8.53317C11.468 8.87388 11.6943 9.49762 10.673 9.49762L6.86842 9.49852ZM3.97056 6.8873H3.34683C3.74342 7.11444 4.02735 7.79586 4.02735 8.19336V10.6919C4.02735 11.3724 4.53842 13.8142 6.75304 13.8142H13.1689V17.9027C13.1689 18.5833 12.9417 18.9808 12.7723 19.1511L11.806 20.0597H12.2603L14.0207 18.4706C14.3614 18.0731 14.7589 17.6756 14.7589 16.4263V13.8133L15.4971 13.0751L16.7464 11.8826C16.7464 12.9047 17.2574 13.359 17.7108 13.359C17.9632 13.3429 18.203 13.243 18.3922 13.0751L19.5279 11.9962C20.039 11.4851 20.3229 9.89602 19.0737 9.89602C18.2787 9.89602 17.3701 11.0317 17.3142 11.1453C17.0303 10.974 16.8031 10.5774 16.8031 10.5774V11.5419C16.6896 11.7131 16.1785 12.1097 15.781 12.1097H14.7589V11.1453C14.7589 10.691 14.9292 10.1799 15.1555 9.9528L16.1217 9.04424H15.6674L13.7367 10.8046C13.396 11.2012 13.1689 11.9403 13.1689 12.1097H5.90217C4.9936 12.1097 4.42575 11.2021 4.42575 10.4639V8.58905C4.42575 7.05675 4.02915 6.8864 3.97147 6.8864M18.6771 12.3369C18.5067 12.3369 18.3363 12.2801 18.1092 12.1097C17.883 11.9394 17.4855 11.3715 17.4855 11.3715C17.599 11.2589 17.9397 11.1453 18.2228 11.1453C18.4499 11.1453 18.6771 11.2021 18.7338 11.3156C19.1313 11.8258 19.0746 12.3369 18.6771 12.3369ZM15.6683 0.527344L13.7367 2.28769C13.6232 2.40126 13.1689 3.08268 13.1689 3.87768V8.93067C13.1689 9.27138 12.9417 9.78245 12.7723 9.9528L11.806 10.8614H12.2603L14.0774 9.21459C14.3046 8.98745 14.7589 8.4196 14.7589 7.45425V2.6284C14.7589 1.88929 15.0996 1.49269 15.2699 1.32144L16.1226 0.527344H15.6683ZM15.9523 13.4726V15.4601L16.6337 16.1983C17.2015 16.7661 17.1448 17.8451 15.4412 19.4909C14.8354 20.1402 14 20.5274 13.113 20.5699H10.0475L11.8637 22.1598H13.113C14.3623 22.1598 15.498 21.6488 16.2362 20.8538C16.9176 20.1156 17.3151 19.1502 17.2583 18.129V15.5169C17.2583 14.6083 16.6905 14.0972 16.5769 13.9846C16.4633 13.9846 15.9523 13.4726 15.9523 13.4726Z" fill="white"/>
</g>
<defs>
<clipPath id="clip0_54622_21058">
<rect width="21.6325" height="21.6325" fill="white" transform="translate(0.441895 0.525391)"/>
</clipPath>
</defs>
</svg>
