<svg width="73" height="72" viewBox="0 0 73 72" fill="none" xmlns="http://www.w3.org/2000/svg">
<path d="M66.3333 36C66.3333 47.313 66.3333 52.971 62.8173 56.484C59.3013 59.997 53.6463 60 42.3333 60H30.3333C19.0203 60 13.3623 60 9.84931 56.484C6.33631 52.968 6.33331 47.313 6.33331 36C6.33331 24.687 6.33331 19.029 9.84931 15.516C13.0383 12.327 17.9913 12.03 27.3333 12M45.3333 12C54.6753 12.03 59.6283 12.324 62.8173 15.51C64.7793 17.472 65.6463 20.097 66.0273 24M36.3333 15V9M24.3333 31.5H48.3333M24.3333 42H40.8333" stroke="#667085" stroke-width="4.5" stroke-linecap="round"/>
</svg>
