<svg width="24" height="24" viewBox="0 0 24 24" fill="none" xmlns="http://www.w3.org/2000/svg">
<path fill-rule="evenodd" clip-rule="evenodd" d="M7.05002 6.05036C8.36284 4.73754 10.1434 4 12 4C13.8566 4 15.6372 4.73754 16.95 6.05036C18.2628 7.36318 19.0004 9.14375 19.0004 11.0004C19.0004 12.857 18.2628 14.6375 16.95 15.9504L12 20.9004L7.05002 15.9504C6.39993 15.3003 5.88425 14.5286 5.53242 13.6793C5.1806 12.83 4.99951 11.9197 4.99951 11.0004C4.99951 10.081 5.1806 9.17073 5.53242 8.32141C5.88425 7.47208 6.39993 6.70038 7.05002 6.05036ZM12 13.0004C12.5304 13.0004 13.0392 12.7896 13.4142 12.4146C13.7893 12.0395 14 11.5308 14 11.0004C14 10.4699 13.7893 9.96122 13.4142 9.58614C13.0392 9.21107 12.5304 9.00036 12 9.00036C11.4696 9.00036 10.9609 9.21107 10.5858 9.58614C10.2107 9.96122 10 10.4699 10 11.0004C10 11.5308 10.2107 12.0395 10.5858 12.4146C10.9609 12.7896 11.4696 13.0004 12 13.0004Z" fill="#F03D24"/>
</svg>
