<svg width="72" height="72" viewBox="0 0 72 72" fill="none" xmlns="http://www.w3.org/2000/svg">
<path d="M58.5 57C62.6421 57 66 53.6421 66 49.5C66 45.3579 62.6421 42 58.5 42C54.3579 42 51 45.3579 51 49.5C51 53.6421 54.3579 57 58.5 57Z" stroke="#667085" stroke-width="4.5" stroke-linecap="round" stroke-linejoin="round"/>
<path d="M13.5 57C17.6421 57 21 53.6421 21 49.5C21 45.3579 17.6421 42 13.5 42C9.35786 42 6 45.3579 6 49.5C6 53.6421 9.35786 57 13.5 57Z" stroke="#667085" stroke-width="4.5" stroke-linecap="round" stroke-linejoin="round"/>
<path d="M60.7066 23.61C64.5496 28.287 65.8876 32.736 65.9986 35.088C63.9113 34.1347 61.6424 33.6444 59.3476 33.651C52.0126 33.651 45.4276 38.529 43.8556 45.027C43.4776 46.581 43.2916 47.358 42.8836 47.679C42.4756 48 41.8156 48 40.4986 48H31.8646C30.5356 48 29.8726 48 29.4646 47.676C29.0536 47.346 28.8736 46.575 28.5166 45.027C27.0286 38.613 20.9926 33.036 14.7076 33.507C14.0746 33.558 13.7566 33.582 13.5376 33.531C13.3246 33.483 13.1056 33.36 12.6676 33.111C11.4046 32.4 10.1146 31.722 8.87563 30.969C8.02633 30.4514 7.31902 29.7307 6.81734 28.8719C6.31567 28.0131 6.03536 27.043 6.00163 26.049C5.96263 24.897 6.62263 23.757 7.95763 24.069L27.2176 28.602C28.6666 28.944 29.3896 29.112 30.0106 28.998C30.6316 28.884 31.3966 28.362 32.9206 27.318C36.7846 24.678 42.9106 22.179 49.0156 24.384C50.6866 24.987 51.5236 25.29 51.9976 25.305C52.4776 25.32 53.1736 25.116 54.5686 24.711C56.5672 24.1208 58.6245 23.7516 60.7036 23.61C58.2976 20.676 54.9016 17.655 50.2036 15" stroke="#667085" stroke-width="4.5" stroke-linecap="round" stroke-linejoin="round"/>
</svg>
