<svg width="29" height="29" viewBox="0 0 29 29" fill="none" xmlns="http://www.w3.org/2000/svg">
<g clip-path="url(#clip0_54622_21111)">
<path d="M18.0601 6.42604C19.1786 6.68589 19.9227 7.26347 19.9227 7.26347C19.9227 7.26347 19.2554 6.21225 18.1581 5.72798C17.3431 5.36891 16.5435 5.36419 15.9175 5.45868C15.9667 5.35927 16.0331 5.26931 16.1135 5.19292C16.3061 5.01575 16.5234 4.91299 16.5234 4.91299C16.5234 4.91299 16.0592 4.79723 15.6564 4.94842C15.475 5.01891 15.3075 5.12088 15.1615 5.24961C15.1455 5.13045 15.1234 5.01219 15.0954 4.89527C15.0481 4.70274 14.8202 4.28934 14.8001 4.25391C14.7812 4.28934 14.5532 4.70274 14.506 4.89645C14.4779 5.01337 14.4559 5.13164 14.4398 5.2508C14.294 5.12164 14.1264 5.01927 13.9449 4.94842C13.5434 4.79723 13.0792 4.91299 13.0792 4.91299C13.0792 4.91299 13.2953 5.01575 13.4878 5.19292C13.5697 5.2693 13.6351 5.35789 13.6839 5.45868C13.0579 5.36419 12.2594 5.36891 11.4445 5.72916C10.346 6.21343 9.67864 7.26347 9.67864 7.26347C9.67864 7.26347 10.4228 6.68707 11.5425 6.42604C12.0335 6.3129 12.5411 6.29048 13.0402 6.35989C12.3409 6.51344 11.3606 6.87724 10.6377 7.79735C10.0082 8.59817 9.84636 9.71908 9.84636 9.71908C9.84636 9.71908 10.3578 9.06473 11.2189 8.33478C11.6518 7.96835 12.1316 7.6613 12.6457 7.42175C12.1094 7.92964 11.8449 8.7092 11.7362 9.00567C11.4114 9.90689 11.6204 10.9073 11.6204 10.9073C11.6204 10.9073 11.7575 10.2541 12.2583 9.40372C12.5768 8.87676 12.9844 8.40916 13.463 8.02177C13.0012 9.73208 13.4772 11.4164 13.4772 11.4164C13.4772 11.4164 13.7666 10.1195 14.2013 9.02102C14.3855 8.55329 14.5981 8.19894 14.8013 7.93437C15.0044 8.19894 15.217 8.55211 15.4013 9.02102C15.836 10.1195 16.1253 11.4164 16.1253 11.4164C16.1253 11.4164 16.6014 9.73208 16.1395 8.02059C16.5258 8.33714 16.9852 8.79661 17.3431 9.40254C17.8439 10.253 17.9821 10.9073 17.9821 10.9073C17.9821 10.9073 18.1912 9.90689 17.864 9.00567C17.7577 8.71038 17.4919 7.93082 16.9569 7.42175C17.471 7.6613 17.9508 7.96835 18.3837 8.33478C19.2448 9.06473 19.755 9.71908 19.755 9.71908C19.755 9.71908 19.5944 8.59817 18.9637 7.79735C18.242 6.87606 17.2616 6.51226 16.5612 6.35989C16.9982 6.30202 17.5097 6.29848 18.0613 6.42604H18.0601ZM13.9237 12.2503L0.759777 9.6116C0.737037 9.60747 0.713574 9.61054 0.692661 9.62038C0.671748 9.63022 0.654428 9.64634 0.643115 9.6665C0.631802 9.68665 0.627062 9.70983 0.629554 9.73281C0.632046 9.75579 0.641647 9.77742 0.657017 9.79468L4.83474 14.413C6.11393 14.185 7.40374 14.1744 8.67348 14.4531C10.5728 14.8689 12.3433 15.7075 14.0831 16.552L13.9237 12.2503ZM10.3732 20.5301L9.61958 19.6939C10.129 19.4128 10.6362 19.1269 11.1409 18.8364C11.9854 18.3497 12.8134 17.8324 13.6603 17.3458C11.683 16.2107 10.1783 15.5044 8.9038 15.0685C7.61753 14.5606 6.20606 14.4602 4.83592 14.4118L9.61249 19.6915C9.46963 19.7967 9.32097 19.8937 9.1672 19.9821C7.58564 20.9176 6.62537 21.0487 5.34027 21.1432C6.52379 21.39 7.02341 21.7137 8.75734 21.3239C9.36563 21.1869 10.3424 20.5561 10.3755 20.5349L14.3985 24.9807L14.1446 18.1797C13.1595 18.7714 12.185 19.3809 11.2141 19.9963M15.6789 12.2503L15.5182 16.552C17.2593 15.7075 19.031 14.8689 20.9303 14.4531C22.1988 14.1756 23.4886 14.1862 24.7678 14.4118L28.9455 9.79468C28.9609 9.77742 28.9705 9.75579 28.973 9.73281C28.9755 9.70983 28.9708 9.68665 28.9594 9.6665C28.9481 9.64634 28.9308 9.63022 28.9099 9.62038C28.889 9.61054 28.8655 9.60747 28.8428 9.6116M24.7678 14.4118L19.9901 19.6915C20.0125 19.7081 20.1708 19.8262 20.4354 19.9821C22.0181 20.9176 22.9772 21.0487 24.2623 21.1432C23.0788 21.39 22.5791 21.7137 20.8464 21.3239C20.2369 21.1869 19.2601 20.5561 19.227 20.5349L15.2041 24.9807L15.458 18.1797C16.7289 18.9415 17.9786 19.7364 19.2294 20.5301L19.983 19.6939C19.4732 19.4127 18.9661 19.1269 18.4617 18.8364C17.6183 18.3497 16.7892 17.8324 15.9435 17.3458C18.2443 16.0371 19.546 15.463 20.6988 15.0685C21.985 14.5606 23.3965 14.4602 24.7678 14.4118Z" fill="white"/>
</g>
<defs>
<clipPath id="clip0_54622_21111">
<rect width="28.3476" height="28.3476" fill="white" transform="translate(0.626953 0.449219)"/>
</clipPath>
</defs>
</svg>
