<svg width="20" height="20" viewBox="0 0 20 20" fill="none" xmlns="http://www.w3.org/2000/svg">
<path d="M20 13.4375C20 15.3359 18.9459 16.875 16.875 16.875H3.125C1.05406 16.875 0 15.3359 0 13.4375V6.5625C0 4.66406 1.05406 3.125 3.125 3.125H16.875C18.9459 3.125 20 4.66406 20 6.5625V13.4375Z" fill="#137A08"/>
<path fill-rule="evenodd" clip-rule="evenodd" d="M9.56004 9.78746C9.53785 9.47715 9.58754 9.39934 9.94285 9.1934C9.84191 9.10152 9.72004 9.08027 9.59504 9.07059C9.44535 9.05934 9.29598 9.05434 9.14785 9.04027C9.0716 9.03371 9.05723 9.00371 9.0716 8.9284C9.1116 8.72215 9.21848 8.57902 9.42848 8.51371C9.63285 8.44965 9.83254 8.37027 10.04 8.29496C10.033 8.27725 10.0254 8.25944 10.0172 8.24152C9.99385 8.19733 9.98099 8.14835 9.97963 8.09837C9.97828 8.0484 9.98847 7.99879 10.0094 7.9534C10.026 7.91777 10.0444 7.88215 10.065 7.84934C10.1932 7.64465 10.3175 7.60684 10.5354 7.70934C10.6041 7.74184 10.671 7.7809 10.7307 7.82746C10.9038 7.96215 10.9194 8.15215 10.7647 8.30934C10.7 8.3734 10.6125 8.41746 10.5347 8.47027C10.49 8.49965 10.4182 8.49152 10.4025 8.56402C10.4016 8.56965 10.3754 8.57027 10.361 8.57277C10.3219 8.57496 10.2791 8.56684 10.2441 8.58059C10.0769 8.64246 9.91223 8.70934 9.74754 8.77684C9.72191 8.78621 9.69973 8.8034 9.67504 8.81684L9.67941 8.83746C9.82691 8.83746 9.97629 8.83965 10.1235 8.83652C10.4538 8.82809 10.7847 8.81746 11.115 8.80715C11.2225 8.80465 11.2354 8.82465 11.2032 8.92746C11.1956 8.94949 11.1885 8.97168 11.1819 8.99402C11.15 9.10996 11.0713 9.16184 10.9547 9.17965C10.601 9.23027 10.2629 9.34277 9.93066 9.47465C9.85441 9.5059 9.77566 9.54809 9.77191 9.6409C9.7691 9.73184 9.83598 9.78902 9.9091 9.82902C9.98316 9.86871 10.0619 9.89746 10.1391 9.92777C10.2272 9.9609 10.2432 9.98684 10.2204 10.0756C10.1704 10.2612 10.1654 10.2721 9.96598 10.2509C9.56723 10.2078 9.21941 10.0631 8.98441 9.7159C8.93691 9.64527 8.90098 9.5659 8.85379 9.48059C8.83473 9.50496 8.81598 9.52715 8.79723 9.55059C8.64723 9.75652 8.48473 9.95152 8.27785 10.1059C8.12879 10.2181 7.97098 10.3059 7.7741 10.3015C7.54191 10.2959 7.39691 10.1778 7.35223 9.94777C7.34639 9.91923 7.34046 9.89152 7.33441 9.86465C7.11754 9.94496 6.90441 10.0246 6.6916 10.1003C6.58744 10.1363 6.48223 10.1687 6.37598 10.1975C6.33879 10.2078 6.29816 10.204 6.2591 10.2062C6.25431 10.197 6.25025 10.1875 6.24691 10.1775C6.27629 10.1568 6.30441 10.1334 6.33535 10.1156C6.65098 9.93215 6.96348 9.7484 7.2791 9.56621C7.32816 9.53777 7.35066 9.49777 7.36723 9.44527C7.41598 9.30434 7.47035 9.1659 7.52441 9.02652C7.53441 9.00027 7.55285 8.97902 7.57785 8.9384C7.63848 9.07152 7.58066 9.1959 7.61066 9.31996C7.6291 9.31027 7.64723 9.30121 7.66098 9.28934C7.77691 9.19371 7.89441 9.10121 8.00473 9.00027C8.15848 8.85871 8.18129 8.74027 8.09879 8.54902C8.05191 8.4434 7.99941 8.34059 7.9466 8.23809C7.9363 8.21731 7.91967 8.20035 7.8991 8.18965C7.83629 8.15309 7.81723 8.10059 7.84066 8.03621C7.86796 7.96538 7.89931 7.89673 7.93473 7.83027C7.96191 7.77996 8.0091 7.77277 8.04535 7.81496C8.12619 7.90767 8.20202 8.00371 8.27285 8.10309C8.31473 8.16184 8.2916 8.20746 8.22848 8.22684C8.26035 8.35371 8.29629 8.47746 8.3216 8.60277C8.37004 8.85277 8.29316 9.06746 8.12598 9.25465C7.97004 9.42996 7.79785 9.5859 7.59441 9.70652C7.56941 9.7209 7.54941 9.76309 7.55066 9.7934C7.55129 9.86184 7.58004 9.93152 7.65129 9.94434C7.73441 9.95934 7.82566 9.96684 7.90535 9.94777C8.09598 9.90434 8.24848 9.78496 8.37441 9.64277C8.50035 9.49777 8.60629 9.33402 8.72035 9.17902C8.75441 9.13215 8.75566 9.08559 8.73879 9.02996C8.63348 8.70434 8.53254 8.3759 8.42848 8.05059C8.37816 7.8934 8.43004 7.68402 8.54941 7.59277C8.56973 7.62652 8.58941 7.65777 8.6066 7.69184C8.82098 8.13152 8.9491 8.5959 9.01254 9.08027C9.03504 9.26027 9.0691 9.43965 9.19754 9.58246C9.29379 9.69027 9.4191 9.75121 9.56004 9.78746ZM10.541 8.15965C10.5416 8.15194 10.5418 8.14444 10.5416 8.13715C10.451 8.09652 10.3791 8.01434 10.251 8.01434C10.2604 8.08777 10.2685 8.15184 10.2766 8.22809L10.541 8.15965ZM13.2532 13.9243C13.0882 13.9243 12.9419 13.9218 12.7947 13.9259C12.4929 13.9325 12.1922 13.9468 11.8888 13.949C10.1894 13.9618 8.48848 13.9731 6.78816 13.9793C6.47723 13.98 6.16473 13.9587 5.86191 13.8725C5.71973 13.8318 5.5866 13.7703 5.48129 13.66C5.45629 13.6337 5.43504 13.6006 5.39941 13.5543H5.53535C7.4041 13.5662 9.27285 13.5815 11.141 13.59C11.8104 13.594 12.4785 13.5859 13.1479 13.5815C13.1747 13.5815 13.2225 13.5728 13.2238 13.5637C13.2288 13.5296 13.23 13.4825 13.2097 13.4612C13.1175 13.359 13.1697 13.2756 13.2416 13.19C13.2707 13.1556 13.3013 13.1503 13.3335 13.1881C13.4216 13.294 13.4479 13.349 13.3691 13.45C13.3469 13.4787 13.3485 13.5262 13.3366 13.5728C13.3713 13.5756 13.3919 13.5796 13.4113 13.579C13.73 13.5734 14.046 13.5665 14.3641 13.56C14.4245 13.56 14.4848 13.5637 14.545 13.5712C14.6888 13.5878 14.765 13.6578 14.7963 13.8009C14.8232 13.9206 14.8232 14.0415 14.7769 14.1575C14.715 14.3143 14.5722 14.3462 14.445 14.2346C14.4229 14.2183 14.3966 14.2086 14.3691 14.2068C14.2879 14.2043 14.2063 14.2068 14.125 14.2075C14.0647 14.2084 14.0047 14.199 13.9607 14.2671C13.9319 14.3112 13.8794 14.2928 13.8341 14.264C13.8014 14.2421 13.7641 14.2282 13.725 14.2234C13.6597 14.2178 13.5935 14.2265 13.5285 14.2221C13.4519 14.2184 13.39 14.2312 13.3557 14.3109C13.3363 14.3537 13.3013 14.3521 13.2666 14.3193C13.1725 14.2346 13.1647 14.1659 13.2275 14.0537C13.246 14.0203 13.2435 13.9762 13.2532 13.9243ZM14.37 14.0962L14.3891 13.8946C14.3735 13.8931 14.3607 13.8881 14.3488 13.8881C14.0425 13.8959 13.7366 13.9025 13.4297 13.9115C13.3582 13.9137 13.331 13.9634 13.3663 14.0281C13.3972 14.0831 13.4341 14.1281 13.5144 14.1137C13.586 14.1021 13.6607 14.1112 13.7332 14.1043C13.7667 14.1006 13.7982 14.0862 13.8229 14.0631C13.8722 14.0162 13.9188 14.0175 13.9694 14.0553C13.99 14.0718 14.0116 14.0934 14.0329 14.0943C14.1444 14.0993 14.2572 14.0962 14.37 14.0962Z" fill="white"/>
<path fill-rule="evenodd" clip-rule="evenodd" d="M5.9814 8.61828C5.89702 8.64328 5.81296 8.66828 5.7289 8.69609C5.64233 8.72297 5.56171 8.70266 5.4864 8.66391C5.46202 8.65297 5.43483 8.62484 5.4314 8.60266C5.40265 8.39203 5.39077 8.18422 5.54421 8.00547C5.65108 7.87953 5.75858 7.85797 5.88015 7.96953C5.97327 8.05328 6.04952 8.15516 6.14015 8.25672C6.1689 8.24016 6.21421 8.21922 6.2539 8.19078C6.26276 8.18284 6.2699 8.17317 6.2749 8.16237C6.2799 8.15157 6.28264 8.13986 6.28296 8.12797C6.26046 7.86234 6.23515 7.59484 6.20952 7.32859C6.18056 7.02922 6.15098 6.72953 6.12077 6.42953C6.11905 6.4089 6.11528 6.38848 6.10952 6.36859C6.07046 6.24891 6.13827 6.09453 6.25858 6.04609C6.27358 6.03953 6.31358 6.05734 6.32202 6.07391C6.35077 6.13297 6.37046 6.19578 6.39296 6.25734C6.43463 6.37047 6.47577 6.4837 6.5164 6.59703C6.52796 6.62601 6.53513 6.65656 6.53765 6.68766C6.5464 6.79609 6.50358 6.83016 6.39983 6.80203C6.42733 7.21078 6.45671 7.61859 6.48702 8.04203C6.5339 8.00391 6.56671 7.97141 6.6039 7.94578C6.62858 7.92891 6.6589 7.92109 6.68671 7.90891C6.6989 7.93953 6.71796 7.96797 6.72077 7.99828C6.72827 8.05109 6.71452 8.10734 6.73046 8.15516C6.74796 8.20516 6.77952 8.27109 6.82108 8.28703C6.86171 8.30234 6.9439 8.27859 6.9714 8.24328C7.03921 8.15984 7.08765 8.06047 7.14108 7.96547C7.15452 7.94141 7.16296 7.91516 7.17358 7.89016H7.19796C7.20827 7.94234 7.21483 7.99766 7.23108 8.04828C7.25046 8.10703 7.26952 8.17109 7.30515 8.21766C7.3664 8.29734 7.45171 8.27828 7.47296 8.18359C7.48577 8.12422 7.48015 8.05859 7.47077 7.99922C7.45858 7.93234 7.48515 7.86766 7.55046 7.85547C7.56858 7.85266 7.60515 7.87484 7.61046 7.89234C7.65452 8.05672 7.65108 8.22203 7.58265 8.37797C7.52765 8.50047 7.30983 8.50828 7.19827 8.39922C7.17796 8.37953 7.15952 8.35516 7.13327 8.32672C7.04827 8.41422 6.96046 8.49328 6.83171 8.50516C6.70358 8.51672 6.59983 8.48297 6.52921 8.35484C6.52046 8.38172 6.51171 8.39516 6.51171 8.40891C6.51702 8.54578 6.52421 8.68203 6.52921 8.81828C6.5389 9.06328 6.52515 9.30516 6.42577 9.53547C6.34521 9.72319 6.20041 9.87608 6.01733 9.96672C5.71765 10.1192 5.4014 10.2183 5.0614 10.2198C5.00202 10.2198 4.94046 10.2095 4.88265 10.1977C4.6564 10.1508 4.54296 9.99578 4.48702 9.78516C4.39921 9.45609 4.41983 9.13234 4.53015 8.81141C4.53952 8.78422 4.55733 8.75891 4.57077 8.73328C4.57844 8.73597 4.58642 8.73765 4.59452 8.73828C4.59452 8.82484 4.60421 8.91266 4.59358 8.99641C4.56577 9.20141 4.57421 9.39953 4.6464 9.59297C4.71233 9.77234 4.84671 9.87297 5.03765 9.88422C5.40921 9.90547 5.72671 9.76391 6.02202 9.55234C6.2264 9.40578 6.30765 9.20453 6.30765 8.96234C6.30671 8.80484 6.30765 8.64672 6.30765 8.47859C6.24858 8.50391 6.18015 8.50578 6.18983 8.58984C6.23983 9.05172 5.97858 9.31859 5.60827 9.51359C5.50827 9.56703 5.39796 9.61172 5.28671 9.63391C5.00202 9.69109 4.7464 9.49859 4.70265 9.21078C4.67171 9.00484 4.70608 8.80422 4.75671 8.60516C4.76546 8.57328 4.79015 8.54578 4.80702 8.51516C4.81361 8.51824 4.82053 8.52055 4.82765 8.52203C4.82765 8.56203 4.8314 8.60172 4.82765 8.64078C4.81265 8.79922 4.81171 8.95641 4.87827 9.10484C4.96671 9.30516 5.11015 9.36891 5.31765 9.30047C5.57546 9.21547 5.77421 9.04641 5.9414 8.84016C5.98452 8.78609 5.98765 8.70297 6.00921 8.63266C6.0014 8.62734 5.99077 8.62266 5.9814 8.61828ZM5.88765 8.36016C5.85015 8.31453 5.82921 8.27422 5.79702 8.25266C5.76108 8.22828 5.71327 8.22016 5.67202 8.20516C5.66171 8.24828 5.63952 8.29328 5.6464 8.33422C5.64921 8.35953 5.69483 8.39484 5.72265 8.39703C5.77233 8.39859 5.82202 8.37641 5.88765 8.36016ZM14.8505 7.68734C14.8589 7.86516 14.8692 8.04203 14.8773 8.22016C14.8917 8.51672 14.9139 8.81234 14.913 9.10828C14.9111 9.22862 14.8815 9.3469 14.8264 9.45391C14.6917 9.71547 14.4548 9.74953 14.2014 9.59203C14.1233 9.54422 14.0636 9.46484 14.0036 9.39203C13.9689 9.35203 13.9433 9.34141 13.9123 9.38359C13.8669 9.44404 13.8251 9.50717 13.7873 9.57266C13.6905 9.74703 13.5986 9.92422 13.5026 10.0989C13.4831 10.1359 13.4563 10.1687 13.4239 10.1952C13.3951 10.2164 13.3508 10.2342 13.3176 10.2298C13.1511 10.203 12.912 9.93234 12.9145 9.76203C12.9155 9.61672 12.9342 9.47016 12.9561 9.32547C12.9695 9.23141 12.9998 9.14078 13.023 9.04828L13.0564 9.05047C13.0626 9.09609 13.0751 9.14172 13.0751 9.18766C13.073 9.38703 13.088 9.57984 13.1692 9.76484C13.1795 9.78609 13.1886 9.80859 13.2014 9.82828C13.2623 9.92453 13.3405 9.92797 13.4051 9.83328C13.4395 9.78141 13.4651 9.72359 13.4964 9.66859C13.6111 9.46578 13.7217 9.25922 13.8423 9.06078C13.9198 8.93172 13.9958 8.93172 14.0976 9.04641C14.1639 9.12266 14.2226 9.20922 14.2961 9.27766C14.4067 9.38016 14.5626 9.34234 14.6145 9.20078C14.643 9.11797 14.6636 9.02641 14.6601 8.93953C14.6455 8.51891 14.6233 8.09609 14.6017 7.67547C14.5961 7.58359 14.5823 7.49109 14.5833 7.39984C14.5859 7.31863 14.5574 7.23949 14.5036 7.17859C14.3486 6.98703 14.1995 6.79016 14.0445 6.59859C13.9655 6.50234 13.9164 6.40453 13.9345 6.27641C13.9442 6.21703 13.933 6.15453 13.9376 6.09484C13.9401 6.06891 13.9511 6.03078 13.9695 6.02172C13.9883 6.01328 14.028 6.02672 14.0451 6.04359C14.166 6.15651 14.2843 6.27172 14.4001 6.38922C14.4501 6.43922 14.4408 6.46984 14.367 6.51734C14.4126 6.58516 14.4592 6.65203 14.5039 6.71828L14.528 6.71391C14.5136 6.60484 14.5167 6.48953 14.4811 6.39016C14.4251 6.23734 14.4833 6.12422 14.567 6.01297C14.6108 5.95453 14.6455 5.99297 14.6639 6.03984C14.7108 6.15953 14.7548 6.27859 14.7976 6.40047C14.8242 6.47453 14.8455 6.55141 14.8726 6.63984C14.8286 6.63703 14.8055 6.63422 14.7842 6.63234C14.7836 6.63797 14.7801 6.64172 14.7801 6.64672C14.7898 6.80391 14.7986 6.96234 14.8098 7.11859C14.8114 7.13641 14.813 7.15609 14.8233 7.17047C14.9308 7.32328 15.042 7.47609 15.1645 7.62297C15.1473 7.50922 15.1261 7.39391 15.1145 7.27922C15.0814 6.96891 15.0614 6.65703 15.018 6.34859C14.9998 6.21672 15.0276 6.11234 15.1039 6.01297C15.1636 5.93578 15.2133 5.93734 15.2423 6.02922C15.302 6.21828 15.3542 6.41109 15.4033 6.60453C15.4214 6.67453 15.3905 6.70141 15.3108 6.70453C15.3281 6.9537 15.3464 7.20193 15.3658 7.44922C15.3786 7.60734 15.3905 7.76484 15.4086 7.92047C15.4145 7.96422 15.4289 8.01234 15.4536 8.05016C15.6017 8.27578 15.7561 8.49859 15.903 8.72422C15.9995 8.87297 16.0505 9.03641 16.0376 9.21578C16.0361 9.24047 16.0311 9.26422 16.0264 9.31297C15.8323 9.02828 15.6523 8.76547 15.473 8.50141C15.4517 8.78359 15.5211 9.06578 15.3845 9.32578C15.3761 9.32578 15.3661 9.32578 15.3576 9.32641C15.3526 9.28766 15.3414 9.24953 15.3433 9.20953C15.3558 8.90016 15.332 8.59141 15.2758 8.28734C15.2714 8.26672 15.2686 8.24359 15.2561 8.22797C15.1289 8.04547 14.9992 7.86516 14.8701 7.68359C14.8635 7.68464 14.8567 7.68589 14.8505 7.68734Z" fill="white"/>
<path fill-rule="evenodd" clip-rule="evenodd" d="M5.22385 6.24893C5.3626 6.35486 5.42604 6.48018 5.41041 6.6333C5.38979 6.82424 5.43447 7.0033 5.48416 7.18268C5.52072 7.31205 5.59885 7.36549 5.72479 7.36924C5.82822 7.3708 5.86947 7.32955 5.8476 7.22955C5.80916 7.06174 5.76229 6.89549 5.71885 6.72924C5.71037 6.69578 5.69766 6.66354 5.68104 6.6333C5.61197 6.50736 5.64791 6.4058 5.74572 6.31299C5.78729 6.27299 5.82354 6.26799 5.85822 6.31018C5.91166 6.37486 5.96791 6.43893 6.00885 6.51174C6.06041 6.59924 6.04447 6.63736 5.95291 6.68924C5.9826 6.81768 6.02385 6.94611 6.03791 7.07736C6.05229 7.19674 6.05479 7.32424 6.03104 7.44174C5.99541 7.61361 5.7576 7.74205 5.59104 7.70205C5.49322 7.67736 5.43447 7.61205 5.39697 7.52299C5.38104 7.48518 5.36822 7.44518 5.34916 7.3933C5.32697 7.42361 5.30947 7.44174 5.29572 7.46268C5.26791 7.5033 5.25041 7.5558 5.21385 7.5858C5.11979 7.66174 5.13416 7.75674 5.14229 7.85643C5.16197 8.12893 5.18197 8.4008 5.19322 8.6733C5.19791 8.78361 5.1701 8.88955 5.07385 8.97361C5.05572 8.77986 5.03822 8.58736 5.01791 8.39393C4.9976 8.19861 4.97447 8.00299 4.95135 7.8033C4.93979 7.8008 4.92916 7.7958 4.91635 7.79486C4.70791 7.77393 4.58385 7.66705 4.52854 7.4633C4.48416 7.30049 4.49072 7.1358 4.50729 6.97205C4.51385 6.9033 4.51635 6.83518 4.52166 6.7658C4.50885 6.76393 4.49822 6.7608 4.48604 6.75924C4.45541 6.86986 4.42322 6.98049 4.39635 7.09236C4.35635 7.25018 4.32479 7.40861 4.28479 7.56549C4.27236 7.60254 4.25235 7.6366 4.22604 7.66549C4.14635 7.7683 4.04791 7.76643 3.98885 7.65174C3.9363 7.54939 3.89522 7.44155 3.86635 7.33018C3.79723 7.09221 3.79281 6.84011 3.85354 6.59986C3.86041 6.56986 3.8776 6.54111 3.88916 6.51174C3.89635 6.51236 3.90447 6.51424 3.91291 6.51424C3.91604 6.54799 3.9201 6.58361 3.92354 6.61768C3.94385 6.80924 3.95916 7.00268 3.98916 7.19455C3.99885 7.26143 4.03541 7.32768 4.07322 7.38549C4.11229 7.44768 4.16729 7.44299 4.18947 7.37518C4.2226 7.26768 4.24885 7.15736 4.2626 7.04705C4.2851 6.84268 4.33947 6.65111 4.45166 6.4783C4.48354 6.43143 4.5226 6.38518 4.56854 6.35455C4.6476 6.30268 4.7301 6.34486 4.72697 6.43799C4.72318 6.53439 4.70925 6.63013 4.68541 6.72361C4.63322 6.91893 4.63822 7.10768 4.7301 7.28955C4.77635 7.37549 4.82416 7.40611 4.92291 7.41393C4.91697 7.32986 4.91572 7.24674 4.9051 7.16455C4.87729 6.92393 4.84666 6.68205 4.81447 6.44143C4.80431 6.37281 4.78959 6.30496 4.77041 6.2383C4.75541 6.17424 4.80385 6.03643 4.86229 6.00924C4.87947 6.0008 4.92322 6.01361 4.93197 6.02955C4.99166 6.14486 5.05104 6.26174 5.09916 6.38268C5.11039 6.40978 5.11222 6.43987 5.10434 6.46814C5.09647 6.4964 5.07935 6.52122 5.05572 6.53861C5.04197 6.54861 5.03385 6.5733 5.03479 6.59205C5.05791 6.84736 5.08354 7.10361 5.10791 7.35799C5.10854 7.36299 5.11354 7.36611 5.11729 7.36986C5.22166 7.30299 5.28197 7.16424 5.2601 7.04893C5.22854 6.89205 5.19541 6.73643 5.16822 6.5783C5.14854 6.46955 5.17697 6.36705 5.22385 6.24893ZM7.98479 6.30924C7.98229 6.33486 7.98104 6.35924 7.97635 6.38299C7.94166 6.57049 7.93447 6.75955 7.97416 6.94674C7.99104 7.02518 8.03072 7.1033 8.07291 7.17361C8.09229 7.20549 8.14291 7.23799 8.1776 7.23611C8.20572 7.23455 8.24322 7.18768 8.2576 7.15268C8.33791 6.97455 8.4076 6.79049 8.49291 6.61299C8.54572 6.50236 8.6126 6.39674 8.68291 6.29674C8.70854 6.26143 8.77385 6.21486 8.8026 6.22611C8.86541 6.2483 8.89291 6.31518 8.88385 6.38893C8.87291 6.47174 8.85322 6.55455 8.84979 6.63736C8.84322 6.80768 8.83447 6.97861 8.84322 7.14861C8.85166 7.33143 8.98979 7.40861 9.16072 7.33518C9.41979 7.22455 9.48541 7.06268 9.46791 6.80205C9.4551 6.6033 9.40572 6.40455 9.36916 6.20705C9.34729 6.0783 9.42947 5.99455 9.48697 5.8833C9.58104 5.99299 9.60729 6.11111 9.62322 6.2283C9.65135 6.42268 9.66229 6.61924 9.69197 6.81424C9.71322 6.95736 9.76197 7.09393 9.85822 7.20799C9.90041 7.2583 9.94947 7.29893 10.0207 7.2758C10.0942 7.25361 10.117 7.19143 10.1232 7.12236C10.1392 6.94486 10.102 6.77299 10.0495 6.60518C10.0166 6.5003 9.98096 6.3963 9.9426 6.2933C9.92135 6.23736 9.92666 6.19393 9.96729 6.15018C9.9976 6.11768 10.0157 6.07518 10.0388 6.03736C10.0795 5.96611 10.1051 5.95986 10.1679 6.0083C10.2907 6.10486 10.3642 6.23361 10.4042 6.3808C10.4107 6.40518 10.3948 6.43799 10.3888 6.46549C10.362 6.46018 10.3342 6.45799 10.3101 6.44736C10.2863 6.43768 10.2663 6.41955 10.2307 6.39549C10.2607 6.51174 10.2879 6.60986 10.3101 6.71111C10.3438 6.87268 10.3676 7.03674 10.3198 7.20049C10.3126 7.2283 10.3063 7.25643 10.2967 7.28424C10.1901 7.56986 9.95979 7.62799 9.7301 7.42736C9.68104 7.38424 9.63041 7.34361 9.58822 7.30861C9.5076 7.38424 9.4151 7.47518 9.31729 7.55861C9.28166 7.5908 9.2326 7.60955 9.18604 7.62799C8.97604 7.71174 8.79041 7.62986 8.70947 7.41986C8.6426 7.2508 8.65447 7.07424 8.66572 6.8983C8.66791 6.8583 8.66572 6.81705 8.66572 6.77643L8.63947 6.76986C8.62104 6.80674 8.59947 6.84299 8.58541 6.88268C8.52635 7.03955 8.47385 7.19893 8.41322 7.35549C8.32666 7.58111 8.19447 7.59736 8.04229 7.40986C7.77729 7.07924 7.78916 6.7208 7.93385 6.34955C7.94041 6.33393 7.95322 6.31924 7.9626 6.30486C7.96958 6.30809 7.97711 6.31 7.98479 6.31049M11.211 6.88424C11.1963 6.73611 11.2054 6.57861 11.1579 6.44299C11.1388 6.39212 11.1303 6.3379 11.1329 6.28363C11.1355 6.22937 11.1491 6.1762 11.1729 6.12736C11.1885 6.09643 11.2232 6.0558 11.251 6.05393C11.2788 6.05205 11.3226 6.08768 11.3354 6.11736C11.4145 6.30611 11.4907 6.49455 11.5579 6.68799C11.5913 6.7858 11.5601 6.81986 11.461 6.81174C11.4688 6.98768 11.4754 7.16268 11.4876 7.33705C11.4882 7.3608 11.5095 7.38393 11.5223 7.40736C11.7485 7.7908 11.9807 8.17143 12.1988 8.55955C12.3073 8.75049 12.3913 8.95611 12.4226 9.17799C12.4292 9.22236 12.4279 9.26924 12.4295 9.31518C12.4212 9.31983 12.4128 9.3241 12.4042 9.32799C12.3848 9.30236 12.361 9.27893 12.3482 9.25018C12.1404 8.7583 11.8551 8.30955 11.571 7.8583C11.5567 7.83705 11.542 7.81705 11.5142 7.77799C11.5285 7.95236 11.542 8.1058 11.5542 8.25768C11.582 8.59424 11.6479 8.92924 11.6076 9.26799C11.5876 9.4283 11.5382 9.58424 11.4967 9.74018C11.4882 9.77768 11.4588 9.81018 11.4379 9.84393C11.4267 9.84111 11.4142 9.83955 11.4038 9.83705C11.4038 9.79674 11.396 9.75455 11.4054 9.71549C11.4832 9.4133 11.4554 9.10674 11.4204 8.80205C11.3751 8.3983 11.3195 7.99611 11.2745 7.59268C11.2567 7.43643 11.2217 7.29424 11.1188 7.16768C10.9679 6.9783 10.8357 6.77705 10.6901 6.58361C10.647 6.52705 10.586 6.48393 10.5395 6.42986C10.5126 6.40049 10.4854 6.36143 10.4807 6.32518C10.471 6.22852 10.4678 6.13132 10.471 6.03424C10.471 6.00705 10.4867 5.96768 10.5063 5.95643C10.527 5.94705 10.5698 5.95705 10.5898 5.97486C10.744 6.11361 10.8951 6.25528 11.0432 6.39986C11.0688 6.42424 11.0723 6.47205 11.086 6.51049C11.0451 6.51893 11.0054 6.52893 10.9585 6.53955C11.0348 6.65111 11.1145 6.7708 11.1967 6.89018C11.2008 6.88747 11.2056 6.88518 11.211 6.8833M16.2142 6.60299C16.2301 6.79955 16.2463 7.00299 16.2635 7.20518C16.2976 7.6058 16.3338 8.00455 16.3685 8.40455C16.3968 8.684 16.3856 8.96602 16.3354 9.24236C16.2629 9.62455 16.0982 9.94518 15.7148 10.1005C15.6026 10.1461 15.4801 10.1699 15.3607 10.2005C15.3279 10.2077 15.2913 10.2011 15.2563 10.2011C15.2532 10.1917 15.2485 10.1839 15.2457 10.1749C15.2804 10.1424 15.312 10.1071 15.3488 10.0786C15.4742 9.98236 15.6042 9.89486 15.7267 9.79611C16.0201 9.55674 16.1588 9.24299 16.1388 8.86986C16.1177 8.48498 16.088 8.10061 16.0498 7.71705C16.0123 7.32643 15.9648 6.93643 15.9192 6.54643C15.9073 6.44486 15.8904 6.34424 15.8754 6.2433C15.8632 6.17018 15.9551 5.98455 16.022 5.96361C16.0379 5.95924 16.077 5.97955 16.0854 5.99861C16.1667 6.16893 16.2435 6.34018 16.3195 6.51299C16.3288 6.53955 16.3226 6.57174 16.3242 6.60299H16.2142Z" fill="white"/>
<path fill-rule="evenodd" clip-rule="evenodd" d="M11.5313 10.265C11.5735 10.244 11.6138 10.2153 11.6572 10.2034C11.9482 10.124 12.1525 9.9284 12.3497 9.71715C12.5297 9.52465 12.5797 9.29684 12.5597 9.04153C12.5363 8.7259 12.5266 8.40809 12.5004 8.09247C12.4679 7.69997 12.4241 7.31028 12.3825 6.91934C12.368 6.78149 12.3497 6.64404 12.3279 6.50715C12.3224 6.46567 12.3127 6.42484 12.2991 6.38528C12.276 6.3084 12.2863 6.24215 12.3447 6.1834C12.4004 6.13184 12.4516 6.07684 12.5135 6.01309C12.5347 6.04778 12.5594 6.0734 12.5688 6.10215C12.6179 6.26684 12.6666 6.4334 12.7107 6.60028C12.7341 6.68684 12.7129 6.70403 12.6104 6.68434C12.6104 6.76903 12.6044 6.85215 12.611 6.93403C12.6579 7.60528 12.7607 8.27309 12.7525 8.94872C12.7491 9.20122 12.746 9.45434 12.6297 9.68653C12.5247 9.89559 12.3666 10.0643 12.1794 10.2043C12.129 10.2413 12.0707 10.2661 12.0091 10.2768C11.8822 10.2965 11.7541 10.304 11.6263 10.3131C11.5969 10.3147 11.5666 10.3012 11.5369 10.2956C11.5356 10.2853 11.5337 10.2751 11.5313 10.265ZM13.1969 6.75028C13.2116 6.90747 13.2225 7.05059 13.2394 7.19465C13.2832 7.58507 13.3288 7.97507 13.3763 8.36465C13.3991 8.55372 13.4332 8.74247 13.4594 8.93153C13.4919 9.17153 13.4432 9.39622 13.3319 9.60715C13.3122 9.64465 13.2754 9.67184 13.2463 9.7034C13.2372 9.70184 13.2285 9.69872 13.22 9.69747C13.2122 9.66372 13.1944 9.62778 13.2016 9.59934C13.2691 9.32153 13.2241 9.04684 13.1872 8.77122C13.1344 8.39309 13.091 8.01278 13.0375 7.63497C12.9813 7.2434 12.9244 6.85184 12.8591 6.46184C12.8313 6.29184 12.861 6.14622 12.9672 6.01278C13.0263 5.93872 13.0769 5.94278 13.1132 6.02809C13.1482 6.1109 13.1704 6.19559 13.2047 6.2784C13.2525 6.39497 13.3091 6.50684 13.3566 6.6234C13.3744 6.66653 13.376 6.7159 13.3844 6.7609C13.34 6.76309 13.2947 6.7659 13.2497 6.7659C13.2372 6.76559 13.2257 6.75934 13.1969 6.75028ZM6.74474 7.13653C6.77786 7.10872 6.81224 7.07809 6.8463 7.05059C6.99192 6.93122 7.13974 6.81434 7.28317 6.69122C7.3388 6.64247 7.38161 6.57809 7.43067 6.5234C7.31349 6.34872 7.32536 6.16184 7.45692 6.04965C7.51349 6.00153 7.57599 5.97434 7.65161 6.00872C7.7238 6.04403 7.74474 6.10809 7.73661 6.18028C7.72974 6.24715 7.7088 6.3134 7.69692 6.37809C7.68849 6.42497 7.69099 6.47403 7.67849 6.51903C7.66654 6.54993 7.64774 6.57771 7.62349 6.60028C7.59536 6.62809 7.55255 6.64434 7.5288 6.67434C7.3463 6.9059 7.10474 7.05153 6.83317 7.15403C6.81099 7.16215 6.78474 7.16122 6.75974 7.16434C6.75515 7.15538 6.75015 7.14611 6.74474 7.13653ZM7.57442 6.20215C7.56099 6.19997 7.54755 6.19559 7.53474 6.19372C7.5263 6.23747 7.5163 6.28184 7.50849 6.32528L7.54099 6.33122C7.55317 6.28747 7.56255 6.24528 7.57442 6.20215ZM4.11849 9.05434C4.14567 9.16497 4.14505 9.25778 4.12192 9.35747C4.09411 9.47934 4.0813 9.60434 4.06442 9.72778C4.06192 9.74715 4.06442 9.77153 4.07474 9.78809C4.09536 9.82153 4.1163 9.86528 4.14724 9.87872C4.16567 9.88622 4.20692 9.84247 4.2338 9.81934C4.24974 9.80528 4.25755 9.77965 4.27536 9.77215C4.28942 9.76684 4.32286 9.7734 4.32724 9.78497C4.36942 9.87747 4.2913 10.0765 4.19786 10.1209C4.09817 10.1684 3.9913 10.1275 3.96724 10.009C3.94161 9.89028 3.92286 9.76059 3.94161 9.64278C3.97161 9.45872 4.03349 9.27997 4.08349 9.09872C4.08755 9.08528 4.10192 9.07559 4.11849 9.05434ZM13.9804 7.75497L13.7791 7.40122C13.6666 7.45684 13.6404 7.44122 13.646 7.32747C13.6479 7.29872 13.6382 7.26778 13.645 7.24184C13.6538 7.21278 13.6707 7.17309 13.6941 7.16372C13.7166 7.15653 13.7638 7.17559 13.7782 7.19684C13.8232 7.26684 13.8579 7.34309 13.8966 7.41747C13.9129 7.4484 13.9279 7.48247 13.9597 7.51215C13.9597 7.45465 13.9588 7.39934 13.9597 7.34153C13.9619 7.26997 13.9547 7.19434 13.9738 7.12653C13.9866 7.08215 14.035 7.04465 14.0732 7.01309C14.0857 7.00184 14.1319 7.00747 14.1397 7.01965C14.1688 7.06309 14.1954 7.11059 14.2069 7.15997C14.2172 7.20059 14.196 7.23715 14.1447 7.21028C14.0704 7.17278 14.0463 7.21184 14.0441 7.27372C14.0394 7.38997 14.0416 7.50434 14.0369 7.61997C14.0363 7.66215 14.0219 7.70465 14.0132 7.74872C14.0019 7.75143 13.991 7.75351 13.9804 7.75497ZM3.91724 8.61653C4.02786 8.43997 4.17505 8.30403 4.35192 8.20215C4.46411 8.13747 4.58599 8.08903 4.70692 8.03747C4.74255 8.02153 4.7913 7.98653 4.81536 8.05715C4.84005 8.12778 4.81911 8.18059 4.75692 8.20559C4.67911 8.2359 4.59599 8.25559 4.52224 8.29372C4.33411 8.38965 4.15005 8.49278 3.9638 8.59372C3.94859 8.60205 3.93307 8.60965 3.91724 8.61653ZM11.1913 9.9334C11.0625 10.044 10.9438 10.1715 10.76 10.1953C10.64 10.2115 10.5769 10.1365 10.6041 10.0181C10.6138 9.97653 10.6219 9.93434 10.6335 9.8834C10.5729 9.89278 10.526 9.90122 10.4738 9.91059C10.5 9.84559 10.6822 9.71965 10.7382 9.72809C10.7566 9.73059 10.781 9.76965 10.78 9.78934C10.7785 9.83622 10.7582 9.88184 10.7532 9.92809C10.7491 9.96215 10.7572 9.99715 10.7588 10.0318C10.7938 10.029 10.8329 10.0318 10.8641 10.0212C10.9347 9.99497 11.0022 9.95872 11.0725 9.93028C11.1057 9.91653 11.1432 9.91059 11.1782 9.9009C11.1816 9.91184 11.1875 9.9234 11.1913 9.9334ZM14.6907 9.75309C14.7175 9.75622 14.7447 9.75372 14.7688 9.76215C14.8157 9.77497 14.8385 9.80715 14.8179 9.85715C14.8091 9.87903 14.7972 9.89965 14.7857 9.91965C14.7594 9.97153 14.7485 10.0106 14.8313 10.0084C14.85 10.0084 14.8832 10.0234 14.8854 10.0378C14.8904 10.059 14.8841 10.0943 14.8669 10.1078C14.7841 10.174 14.6916 10.2234 14.5822 10.22C14.56 10.2193 14.525 10.2015 14.5219 10.1843C14.5154 10.1618 14.526 10.1275 14.5413 10.1078C14.5675 10.0759 14.6057 10.0522 14.6335 10.0222C14.6644 9.98903 14.6685 9.95059 14.6269 9.92184C14.5854 9.89309 14.5254 9.86778 14.5616 9.80965C14.5838 9.77497 14.6397 9.76059 14.6813 9.73653C14.6838 9.74184 14.6882 9.74715 14.6907 9.75309ZM9.52567 8.09247C9.53442 8.08278 9.53067 8.0859 9.52724 8.08997C9.50286 8.13528 9.47724 8.20122 9.41817 8.17965C9.39321 8.16799 9.37084 8.15145 9.35237 8.131C9.33391 8.11055 9.31973 8.08661 9.31067 8.06059C9.29099 7.98872 9.2988 7.9084 9.29536 7.83215L9.32255 7.82778C9.3538 7.89934 9.38567 7.97215 9.41567 8.04403L9.44911 8.04122C9.46755 7.96497 9.48474 7.88747 9.50317 7.81122L9.52442 7.80903C9.56276 7.87465 9.60099 7.94143 9.63911 8.00934C9.65036 8.00872 9.65942 8.00622 9.66942 8.00559L9.70599 7.72465C9.77067 7.80653 9.7813 7.88122 9.78224 7.96028C9.78224 8.02465 9.7663 8.09059 9.70161 8.10903C9.65567 8.12247 9.59817 8.10028 9.52567 8.09247ZM13.72 8.41122C13.7394 8.37934 13.7522 8.33965 13.7797 8.31465C13.8625 8.24278 13.9513 8.17715 14.036 8.10809C14.1291 8.03059 14.2188 7.95122 14.3135 7.87465C14.3313 7.86028 14.3638 7.84278 14.3791 7.84965C14.3975 7.85809 14.4069 7.89184 14.4116 7.91465C14.4241 7.98059 14.405 8.03059 14.3447 8.06747C14.1669 8.17809 13.9919 8.2934 13.8144 8.40465C13.7932 8.41747 13.7694 8.42465 13.7447 8.43497C13.7369 8.4266 13.7287 8.41868 13.72 8.41122ZM15.675 7.01559C15.6672 6.95997 15.6663 6.9034 15.6513 6.84903C15.6179 6.72184 15.5866 6.59153 15.5354 6.47122C15.5047 6.39559 15.5032 6.33747 15.5488 6.27528C15.5922 6.21653 15.6241 6.21434 15.6494 6.27965C15.6907 6.38715 15.7325 6.4959 15.7466 6.60747C15.7619 6.71747 15.7435 6.83028 15.7363 6.94153C15.7347 6.96778 15.715 6.99215 15.7044 7.01715C15.6947 7.01617 15.6849 7.01565 15.675 7.01559ZM11.9063 6.70684C11.9063 6.65497 11.8994 6.61622 11.9082 6.58122C11.9413 6.4459 11.8954 6.34028 11.8016 6.24778C11.7297 6.17559 11.7275 6.09622 11.8029 6.0309C11.8213 6.01559 11.8713 6.0109 11.8885 6.02497C12.0432 6.14747 12.0757 6.53622 11.9485 6.68684C11.9438 6.69247 11.9357 6.69309 11.9063 6.70684ZM7.59942 7.25934C7.62442 7.38059 7.50005 7.54184 7.3638 7.54934C7.28411 7.5534 7.20505 7.47372 7.20442 7.37747C7.2013 7.22372 7.2888 7.11278 7.39505 7.01528C7.40099 7.00965 7.41442 7.01309 7.44536 7.00965C7.41599 7.06997 7.39036 7.11715 7.37161 7.16403C7.35224 7.20965 7.33161 7.25622 7.32599 7.30403C7.32192 7.33122 7.33942 7.38028 7.36005 7.38903C7.38692 7.39997 7.43224 7.39215 7.45942 7.37559C7.50755 7.34653 7.54755 7.30434 7.59942 7.25934Z" fill="white"/>
<path fill-rule="evenodd" clip-rule="evenodd" d="M12.0851 7.08322C12.1101 7.0179 12.137 6.95259 12.1648 6.88322C12.2182 6.94728 12.2282 7.12509 12.1863 7.1779C12.1529 7.21978 12.1088 7.22384 12.0673 7.19134C12.0204 7.15447 11.9838 7.15384 11.9354 7.19197C11.8779 7.23884 11.8382 7.22697 11.8198 7.15728C11.8048 7.10103 11.807 7.04197 11.8023 6.9854C11.8117 6.98197 11.8223 6.97947 11.831 6.97665C11.8551 7.01634 11.8779 7.05634 11.9107 7.11259C11.9379 7.04259 11.9567 6.98947 11.9848 6.91603C12.0142 6.98572 12.036 7.03228 12.057 7.08103C12.0659 7.08145 12.0753 7.08217 12.0851 7.08322ZM7.06321 9.27728C7.07603 9.16728 7.0879 9.06947 7.09853 8.97165C6.95321 8.95197 6.92071 8.90384 6.97259 8.7979C6.98759 8.7679 7.02978 8.72322 7.0529 8.7279C7.09603 8.73509 7.15134 8.76197 7.17134 8.79884C7.23415 8.91165 7.18759 9.16384 7.09821 9.25884C7.09415 9.26447 7.08446 9.26603 7.06321 9.27728ZM5.36884 5.95634C5.3779 6.01572 5.37946 6.05572 5.39134 6.09228C5.39915 6.11947 5.42134 6.14165 5.43571 6.16697C5.45915 6.15197 5.4879 6.14165 5.50415 6.12228C5.52884 6.08665 5.5454 6.04603 5.5829 6.00697C5.58696 6.03915 5.58696 6.07228 5.59728 6.10009C5.61009 6.12947 5.63446 6.15353 5.6529 6.17978C5.67103 6.15728 5.69134 6.13697 5.7079 6.1129C5.71728 6.09947 5.72134 6.0829 5.73071 6.06447C5.78103 6.13228 5.77571 6.2154 5.72009 6.26322C5.65071 6.32228 5.60759 6.26697 5.56571 6.22134C5.45103 6.29447 5.4054 6.29728 5.35071 6.2354C5.28759 6.16197 5.28665 6.05572 5.36884 5.95634ZM14.311 8.83134C14.3067 8.79165 14.2982 8.7679 14.3026 8.7479C14.3385 8.62822 14.2904 8.54634 14.1957 8.47884C14.1266 8.43072 14.1267 8.37228 14.197 8.32384C14.2192 8.30884 14.2654 8.30322 14.2876 8.31603C14.4304 8.39884 14.471 8.6679 14.3635 8.7904C14.3545 8.80134 14.341 8.80915 14.311 8.83134ZM9.14696 6.73009C9.14696 6.69478 9.1454 6.65978 9.14696 6.62478C9.15665 6.46978 9.12728 6.32509 9.03946 6.1929C9.02446 6.17134 9.01165 6.13322 9.0204 6.1129C9.03614 6.08181 9.06222 6.05717 9.09415 6.04322C9.10853 6.03884 9.14821 6.07384 9.15946 6.0979C9.22727 6.24197 9.24071 6.39478 9.2229 6.54978C9.21634 6.61259 9.1979 6.67384 9.18446 6.73603C9.17196 6.73478 9.15915 6.73165 9.14696 6.73009ZM4.25009 6.45072C4.25665 6.31853 4.32478 6.21009 4.27228 6.09197C4.25259 6.09978 4.24134 6.10728 4.22853 6.11072C4.19884 6.11509 4.16728 6.11759 4.13696 6.12072C4.14384 6.08853 4.14103 6.04822 4.16009 6.02509C4.19884 5.97915 4.23946 5.9129 4.31384 5.94322C4.38134 5.97165 4.38446 6.04197 4.38009 6.10603C4.37384 6.22728 4.32478 6.33103 4.25009 6.45072Z" fill="white"/>
</svg>
