<svg width="128" height="38" viewBox="0 0 128 38" fill="none" xmlns="http://www.w3.org/2000/svg">
<path d="M37.6399 29.6149L10.9136 23.001C10.3148 18.548 9.3942 14.1509 8.1624 9.84813C14.3407 7.89741 20.7616 6.81583 27.3026 6.64844C30.4679 6.67419 33.2341 8.70431 34.2385 11.683L28.2919 12.5178L18.4353 13.9041C18.931 15.3977 19.2873 16.9578 19.4826 18.5652L30.6504 21.3078L36.8523 22.8314C37.2107 25.0762 37.4725 27.338 37.6399 29.6149Z" fill="white"/>
<path d="M0 5.87417C2.58379 12.9431 4.26411 20.4498 4.91435 28.2484L44.3557 38.0063C44.3772 37.1822 44.3922 36.3581 44.3922 35.5276C43.2591 -1.51451 34.1107 -6.08335 0 5.87417ZM42.8857 36.0963L6.31354 27.0466C5.65472 20.1279 4.17827 13.3272 1.92282 6.79695C12.5734 3.13587 19.8183 1.49418 25.2821 1.49418C31.6793 1.49418 35.7202 3.78611 38.3812 8.92364C41.0938 14.162 42.4844 22.3748 42.89 35.5512C42.8879 35.7294 42.8879 35.9096 42.8857 36.0963Z" fill="white"/>
<path d="M51.107 11.332H56.4764C60.4542 11.332 62.7616 13.8491 62.7616 17.4433C62.7616 21.0375 60.515 23.8291 56.4198 23.8291H51.107V11.332ZM54.7725 21.178H56.1746C58.1614 21.178 58.9767 19.7843 58.9767 17.4433C58.9767 15.3748 58.218 13.9853 56.2186 13.9853H54.7725V21.178Z" fill="white"/>
<path d="M73.1829 21.0083C73.1829 22.0814 73.2374 23.5107 73.2982 23.8292H70.033C69.9596 23.6343 69.8988 23.1837 69.8863 22.9511C69.4336 23.5421 68.7336 24.0598 67.2016 24.0598C65.0681 24.0598 63.9154 22.7185 63.9154 21.0272C63.9154 18.791 65.7073 17.8248 68.612 17.8248H69.7794V17.2988C69.7794 16.6889 69.5635 16.2425 68.7105 16.2425C67.9099 16.2425 67.7004 16.6093 67.6165 17.2234H64.3513C64.4771 15.6348 65.4202 14.0755 68.8006 14.086C71.9192 14.0986 73.1829 15.2994 73.1829 17.5943V21.0083ZM69.7815 19.6083H68.9977C67.7779 19.6083 67.3776 20.0359 67.3776 20.738C67.3776 21.2975 67.7088 21.746 68.4129 21.746C69.6117 21.746 69.7815 20.9245 69.7815 19.9018V19.6083Z" fill="white"/>
<path d="M75.2234 10.6836H78.7611V15.1602C79.1928 14.6236 79.9494 14.0871 81.3598 14.0871C83.7176 14.0871 85.1678 15.9859 85.1678 18.8906C85.1678 21.7954 83.6673 24.0588 81.0475 24.0588C79.7314 24.0588 79.1446 23.6459 78.7108 23.0633C78.7045 23.298 78.6625 23.6124 78.6143 23.8283H75.2024C75.2213 22.8496 75.2213 21.7912 75.2213 20.781V10.6836H75.2234ZM81.5694 18.9829C81.5694 17.4676 81.1565 16.579 80.1086 16.579C78.9853 16.579 78.629 17.3523 78.629 19.1275C78.629 20.6134 78.9371 21.6109 80.0856 21.6109C81.0957 21.6109 81.5715 20.628 81.5715 18.9829H81.5694Z" fill="white"/>
<path d="M90.0631 21.398L89.3401 23.8291H85.7731L89.7215 11.332H94.4621L98.5677 23.8291H94.743L93.9843 21.398H90.0631ZM93.343 18.684C92.7562 16.7203 92.2762 14.9745 91.9912 13.7568H91.9409C91.6517 15.1044 91.1739 16.8858 90.6667 18.684H93.3409H93.343Z" fill="white"/>
<path d="M103.327 23.1626V27.3143H99.8085V16.8795C99.8085 16.0223 99.8085 14.9849 99.7896 14.3184H103.231C103.273 14.5615 103.321 15.1022 103.321 15.381C103.696 14.8151 104.461 14.0879 105.989 14.0879C107.992 14.0879 109.713 15.7456 109.713 18.8453C109.713 22.3641 107.728 24.0617 105.536 24.0617C104.363 24.0617 103.698 23.6467 103.327 23.1647V23.1626ZM106.106 18.9836C106.106 17.2253 105.574 16.5777 104.669 16.5777C103.558 16.5777 103.212 17.3384 103.212 19.1156C103.212 20.7566 103.558 21.6096 104.591 21.6096C105.624 21.6096 106.106 20.809 106.106 18.9836Z" fill="white"/>
<path d="M114.813 23.1626V27.3143H111.294V16.8795C111.294 16.0223 111.294 14.9849 111.275 14.3184H114.716C114.758 14.5615 114.806 15.1022 114.806 15.381C115.182 14.8151 115.947 14.0879 117.474 14.0879C119.478 14.0879 121.199 15.7456 121.199 18.8453C121.199 22.3641 119.214 24.0617 117.022 24.0617C115.848 24.0617 115.184 23.6467 114.813 23.1647V23.1626ZM117.592 18.9836C117.592 17.2253 117.059 16.5777 116.154 16.5777C115.043 16.5777 114.697 17.3384 114.697 19.1156C114.697 20.7566 115.043 21.6096 116.076 21.6096C117.11 21.6096 117.592 20.809 117.592 18.9836Z" fill="white"/>
</svg>
