<svg width="73" height="72" viewBox="0 0 73 72" fill="none" xmlns="http://www.w3.org/2000/svg">
<path d="M63.6667 36C63.6667 52.569 57.6217 66 50.1667 66M50.1667 6C55.7017 6 60.4597 13.404 62.5447 24M9.66669 36C9.66669 19.431 15.7117 6 23.1667 6C30.6217 6 36.6667 19.431 36.6667 36C36.6667 52.569 30.6217 66 23.1667 66C17.6317 66 12.8737 58.596 10.7887 48" stroke="#667085" stroke-width="4.5" stroke-linecap="round"/>
<path d="M23.1667 66C30.6217 66 36.6667 52.569 36.6667 36C36.6667 19.431 30.6217 6 23.1667 6" stroke="#667085" stroke-width="4.5"/>
<path d="M23.1667 6H50.1667M23.1667 66H50.1667M27.6667 36C27.6667 45.942 25.6507 54 23.1667 54C20.6827 54 18.6667 45.942 18.6667 36C18.6667 26.058 20.6827 18 23.1667 18C25.6507 18 27.6667 26.058 27.6667 36Z" stroke="#667085" stroke-width="4.5"/>
<path d="M27.6667 36H24.6667" stroke="#667085" stroke-width="4.5" stroke-linecap="round"/>
</svg>
