<svg width="124" height="124" viewBox="0 0 124 124" fill="none" xmlns="http://www.w3.org/2000/svg">
<rect width="124" height="124" rx="62" fill="#FFF6EE"/>
<path d="M47 64.512V62H43V58H55.73L61.4 54H68.384L66.2 48H61V44H69L71.184 50H79V56H73.368L76.28 64.004C78.4895 64.0742 80.5959 64.9552 82.1975 66.479C83.7991 68.0027 84.7839 70.0626 84.9641 72.2659C85.1443 74.4692 84.5072 76.6617 83.1745 78.4254C81.8417 80.1891 79.9064 81.4006 77.7377 81.8289C75.5689 82.2572 73.3184 81.8723 71.4152 80.7477C69.5121 79.623 68.0894 77.8372 67.4185 75.7308C66.7476 73.6245 66.8754 71.3448 67.7775 69.3266C68.6797 67.3085 70.2931 65.6929 72.31 64.788L69.838 58H67.944L64.78 69.74L64.776 69.738L64.78 69.748L58.93 71.878C58.9767 72.246 59 72.62 59 73C58.9995 74.6499 58.5455 76.2679 57.6876 77.6771C56.8297 79.0864 55.6009 80.2328 54.1355 80.9909C52.6701 81.749 51.0245 82.0897 49.3786 81.9758C47.7327 81.8619 46.1497 81.2977 44.8027 80.345C43.4558 79.3922 42.3966 78.0875 41.741 76.5735C41.0854 75.0595 40.8586 73.3944 41.0854 71.7601C41.3122 70.1259 41.9839 68.5855 43.027 67.3072C44.0701 66.0289 45.4445 65.062 47 64.512ZM51 64.054C52.3269 64.2026 53.6041 64.6445 54.7391 65.3477C55.874 66.051 56.8383 66.998 57.562 68.12L61.476 66.694L63.806 58H62.712L57 62H51V64.054ZM50 78C51.3261 78 52.5979 77.4732 53.5355 76.5355C54.4732 75.5979 55 74.3261 55 73C55 71.6739 54.4732 70.4021 53.5355 69.4645C52.5979 68.5268 51.3261 68 50 68C48.6739 68 47.4022 68.5268 46.4645 69.4645C45.5268 70.4021 45 71.6739 45 73C45 74.3261 45.5268 75.5979 46.4645 76.5355C47.4022 77.4732 48.6739 78 50 78ZM76 78C77.3261 78 78.5979 77.4732 79.5355 76.5355C80.4732 75.5979 81 74.3261 81 73C81 71.6739 80.4732 70.4021 79.5355 69.4645C78.5979 68.5268 77.3261 68 76 68C74.6739 68 73.4022 68.5268 72.4645 69.4645C71.5268 70.4021 71 71.6739 71 73C71 74.3261 71.5268 75.5979 72.4645 76.5355C73.4022 77.4732 74.6739 78 76 78Z" fill="#F03D24"/>
</svg>
